<?xml version="1.0" encoding="iso-8859-1"?>
<!-- Generator: Adobe Illustrator 19.0.0, SVG Export Plug-In . SVG Version: 6.00 Build 0)  -->
<svg version="1.1" id="Layer_1" xmlns="http://www.w3.org/2000/svg" xmlns:xlink="http://www.w3.org/1999/xlink" x="0px" y="0px"
	 viewBox="0 0 512 512" style="enable-background:new 0 0 512 512;" xml:space="preserve">
<rect y="362.288" style="fill:#22ACDD;" width="512" height="19.76"/>
<g>
	<path style="fill:#FF6600;" d="M53.376,129.952h22.112v113.6c0,45.088-22.352,58.944-51.856,58.944
		c-8.128,0-18.032-1.744-23.632-4.016l3.312-17.904c4.576,1.776,11.168,3.28,18.56,3.28c19.824,0,31.504-8.8,31.504-42.048V129.952z
		"/>
	<path style="fill:#FF6600;" d="M140,246.352l-17.776,53.392h-22.88l58.208-169.792h26.688l58.448,169.776H219.04l-18.272-53.392
		H140V246.352z M196.176,229.216l-16.784-48.88c-3.808-11.088-6.336-21.152-8.88-30.976h-0.528
		c-2.544,10.064-5.328,20.4-8.624,30.72l-16.784,49.136H196.176z"/>
	<path style="fill:#FF6600;" d="M291.952,299.744l-55.904-169.792h23.872l26.688,83.632c7.392,22.928,13.728,43.584,18.304,63.472
		h0.528c4.832-19.648,11.936-41.04,19.552-63.232l28.976-83.872H377.6l-61.264,169.776h-24.384V299.744z"/>
	<path style="fill:#FF6600;" d="M409.312,246.352l-17.776,53.392h-22.88l58.224-169.776h26.688L512,299.744h-23.632l-18.304-53.392
		L409.312,246.352L409.312,246.352z M465.488,229.216l-16.784-48.88c-3.808-11.088-6.336-21.152-8.88-30.976h-0.528
		c-2.544,10.064-5.328,20.4-8.624,30.72l-16.784,49.136H465.488z"/>
</g>
<g>
</g>
<g>
</g>
<g>
</g>
<g>
</g>
<g>
</g>
<g>
</g>
<g>
</g>
<g>
</g>
<g>
</g>
<g>
</g>
<g>
</g>
<g>
</g>
<g>
</g>
<g>
</g>
<g>
</g>
</svg>
