<?xml version="1.0" encoding="UTF-8"?>
<svg xmlns="http://www.w3.org/2000/svg" xmlns:xlink="http://www.w3.org/1999/xlink" viewBox="0 0 48 48" version="1.1" width="480px" height="480px">
<g id="surface1">
<path style=" fill:#EF0F14;" d="M 2.859375 21.996094 L 5.777344 21.996094 C 6.828125 21.996094 8.039063 22.894531 8.039063 23.996094 C 8.039063 25.101563 6.828125 25.996094 5.777344 25.996094 L 2.859375 25.996094 C 1.8125 25.996094 1 25.101563 1 23.996094 C 1 22.894531 1.8125 21.996094 2.859375 21.996094 Z M 43.019531 20.996094 C 41.621094 20.996094 40.5 22.339844 40.5 23.996094 C 40.5 25.65625 41.628906 26.996094 43.019531 26.996094 L 47.039063 26.996094 L 48 25.996094 L 43 25.996094 C 42.101563 25.949219 41.710938 25.359375 41.5 24.496094 L 47.039063 24.496094 L 48 23.496094 L 41.5 23.496094 C 41.714844 22.636719 42.09375 22.003906 43 21.996094 L 47.039063 21.996094 L 48 20.996094 Z M 34 20.996094 L 34 26.425781 C 34 26.570313 34.09375 26.714844 34.199219 26.824219 C 34.308594 26.9375 34.449219 26.996094 34.605469 26.996094 L 38.539063 27 L 39.539063 26 L 35 25.996094 L 35 21 Z M 27.84375 20.996094 C 26.25 20.996094 24.992188 22.34375 24.992188 24 C 24.992188 25.65625 26.25 26.996094 27.84375 26.996094 L 31.492188 26.984375 L 32.640625 25.996094 L 27.820313 25.996094 C 26.769531 25.996094 25.980469 25.105469 25.980469 24 C 25.980469 22.894531 26.769531 21.996094 27.820313 21.996094 L 31.511719 22.015625 L 32.640625 20.996094 Z M 21 20.996094 C 20.742188 20.996094 20.476563 21.214844 20.328125 21.480469 L 17.5 26.996094 L 18.5 26.996094 L 21 21.996094 L 22.691406 24.996094 L 20.039063 24.996094 L 20.980469 25.976563 L 23.160156 25.972656 L 23.820313 26.996094 L 24.902344 26.988281 L 21.625 21.480469 C 21.394531 21.113281 21.25 20.996094 21 20.996094 Z M 10 20.996094 L 10 26.996094 L 11 26.996094 L 11 21.996094 L 14 21.996094 C 14.515625 21.996094 15 22.460938 15 22.996094 C 15 23.535156 14.515625 23.996094 14 23.996094 L 11.5 23.996094 L 14.980469 26.996094 L 16.5 26.996094 L 14 24.996094 L 14.335938 24.988281 C 15.078125 24.988281 16 24.117188 16 22.996094 C 16 21.878906 15.3125 21.011719 14.445313 20.996094 Z M 2.882813 20.996094 C 1.289063 20.996094 0 22.34375 0 23.996094 C 0 25.652344 1.289063 26.996094 2.882813 26.996094 L 5.761719 26.996094 C 7.351563 26.996094 9 25.65625 9 23.996094 C 9 22.339844 7.351563 20.996094 5.761719 20.996094 Z "/>
</g>
</svg>
